<?xml version="1.0" encoding="UTF-8"?>
<svg id="Layer_1" data-name="Layer 1" xmlns="http://www.w3.org/2000/svg" viewBox="0 0 638.07 317.18">
  <defs>
    <style>
      .cls-1 {
        fill: #fff;
      }

      .cls-2 {
        fill: #8f66ff;
      }
    </style>
  </defs>
  <g>
    <polygon class="cls-1" points="199.17 0 199.17 146.9 165.47 146.9 165.47 57.52 76.09 146.9 28.45 146.9 175.35 0 199.17 0"/>
    <polygon class="cls-1" points="638.07 148.07 533.23 148.07 533.23 1.17 566.92 1.17 566.92 114.37 638.07 114.37 638.07 148.07"/>
    <g>
      <path class="cls-2" d="m514.05,53.22v-.49s0,.18,0,.49Z"/>
      <g>
        <path class="cls-2" d="m414.95,33.69v79.52h23.13v33.69h-56.82v-52.73c0-11.38-13.28-20.04-13.28-20.04,12.35-6.1,13.24-18.34,13.28-20.91V0h56.82v33.69h-23.13Z"/>
        <path class="cls-2" d="m527.34,74.14s-13.28,8.65-13.28,20.04v52.73h-56.82v-33.69h23.13V33.69h-23.13V0h56.82v53.22c.05,2.58.94,14.81,13.28,20.91Z"/>
      </g>
    </g>
    <polygon class="cls-1" points="360.73 0 360.73 146.9 327.03 146.9 327.03 60.32 290.67 97.43 252.04 58 252.04 146.9 218.35 146.9 218.35 0 242.38 0 290.67 49.29 338.96 0 360.73 0"/>
  </g>
  <g>
    <g>
      <path class="cls-2" d="m152.73,199.93v79.52h23.13v33.69h-56.82v-52.73c0-11.38-13.28-20.04-13.28-20.04,12.8-6.32,13.28-19.25,13.28-21.17v-52.97h56.82v33.69h-23.13Z"/>
      <path class="cls-2" d="m265.12,240.38s-13.28,8.65-13.28,20.04v52.73h-56.82v-33.69h23.13v-79.52h-23.13v-33.69h56.82v52.97c0,1.91.48,14.85,13.28,21.17Z"/>
    </g>
    <polygon class="cls-1" points="101.84 314.3 0 314.3 0 166.24 101.84 166.24 101.84 199.93 33.69 199.93 33.69 280.61 101.84 280.61 101.84 314.3"/>
    <path class="cls-1" d="m329.17,314.3h-57.8v-148.07h57.8c34.17,0,61.98,27.8,61.98,61.98v24.11c0,34.17-27.8,61.98-61.98,61.98Zm-24.11-33.69h24.11c15.6,0,28.28-12.69,28.28-28.28v-24.11c0-15.6-12.69-28.28-28.28-28.28h-24.11v80.68Z"/>
    <polygon class="cls-1" points="638.07 317.18 533.23 317.18 533.23 283.48 604.37 283.48 604.37 258.55 533.23 258.55 533.23 166.24 638.07 166.24 638.07 199.93 566.92 199.93 566.92 224.86 638.07 224.86 638.07 317.18"/>
    <polygon class="cls-1" points="437.65 199.93 437.65 224.87 514.05 224.87 514.05 258.56 437.65 258.56 437.65 283.48 514.05 283.48 514.05 317.17 403.96 317.17 403.96 166.24 514.05 166.24 514.05 199.93 437.65 199.93"/>
  </g>
</svg>